<?xml version="1.0" encoding="utf-8"?>
<!-- Generator: Adobe Illustrator 22.0.0, SVG Export Plug-In . SVG Version: 6.00 Build 0)  -->
<svg version="1.1" id="Layer_1" xmlns="http://www.w3.org/2000/svg" xmlns:xlink="http://www.w3.org/1999/xlink" x="0px" y="0px"
	 viewBox="0 0 3000 494.1" style="enable-background:new 0 0 3000 494.1;" xml:space="preserve">
<style type="text/css">
	.st0{fill:#FFDD33;}
	.st1{fill:#FFFFFF;}
</style>
<rect class="st0" width="3000" height="494.1"/>
<g>
	<g>
		<polygon class="st1" points="48.3,494.1 -156.6,494.1 73.4,0 278.3,0 		"/>
		<polygon class="st1" points="459.5,494.1 254.6,494.1 484.6,0 689.5,0 		"/>
		<polygon class="st1" points="870.6,494.1 665.8,494.1 895.8,0 1100.7,0 		"/>
		<polygon class="st1" points="1281.8,494.1 1077,494.1 1307,0 1511.8,0 		"/>
		<polygon class="st1" points="1693,494.1 1488.1,494.1 1718.2,0 1923,0 		"/>
		<polygon class="st1" points="2104.1,494.1 1899.3,494.1 2129.3,0 2334.2,0 		"/>
		<polygon class="st1" points="2515.4,494.1 2310.4,494.1 2540.5,0 2745.3,0 		"/>
		<polygon class="st1" points="2926.5,494.1 2721.7,494.1 2951.7,0 3156.6,0 		"/>
	</g>
</g>
</svg>
